<svg xmlns="http://www.w3.org/2000/svg" viewBox="0 0 512 512" width="100%" height="100%">
  <defs>
    <radialGradient id="bgGrad" cx="50%" cy="50%" r="50%">
      <stop offset="0%" stop-color="#0d2b27"/>
      <stop offset="60%" stop-color="#051714"/>
      <stop offset="100%" stop-color="#020907"/>
    </radialGradient>
    <linearGradient id="jadeBody" x1="0%" y1="0%" x2="100%" y2="100%">
      <stop offset="0%" stop-color="#5eead4"/>
      <stop offset="35%" stop-color="#14b8a6"/>
      <stop offset="70%" stop-color="#0f766e"/>
      <stop offset="100%" stop-color="#042f2e"/>
    </linearGradient>
    <linearGradient id="bellyGrad" x1="0%" y1="0%" x2="0%" y2="100%">
      <stop offset="0%" stop-color="#ccfbf1"/>
      <stop offset="50%" stop-color="#99f6e4"/>
      <stop offset="100%" stop-color="#2dd4bf"/>
    </linearGradient>
    <radialGradient id="eyeGlow" cx="40%" cy="40%" r="50%">
      <stop offset="0%" stop-color="#fef08a"/>
      <stop offset="65%" stop-color="#f59e0b"/>
      <stop offset="100%" stop-color="#b45309"/>
    </radialGradient>
    <radialGradient id="mistGlow" cx="50%" cy="50%" r="50%">
      <stop offset="0%" stop-color="rgba(45,212,191,0.25)"/>
      <stop offset="70%" stop-color="rgba(15,118,110,0.1)"/>
      <stop offset="100%" stop-color="transparent"/>
    </radialGradient>
    <filter id="glow" x="-20%" y="-20%" width="140%" height="140%">
      <feGaussianBlur stdDeviation="8" result="blur"/>
      <feComposite in="SourceGraphic" in2="blur" operator="over"/>
    </filter>
  </defs>

  <!-- Background -->
  <rect width="512" height="512" rx="36" fill="url(#bgGrad)"/>
  <circle cx="256" cy="270" r="190" fill="url(#mistGlow)"/>

  <!-- Water Ripples & Lotus Rock -->
  <ellipse cx="256" cy="410" rx="180" ry="38" fill="#042f2e" opacity="0.6"/>
  <ellipse cx="256" cy="405" rx="140" ry="24" fill="#134e4a" opacity="0.4"/>
  <path d="M120 420 Q256 370 392 420 Q256 460 120 420 Z" fill="#1c2d2a" stroke="#2dd4bf" stroke-width="1.5" opacity="0.7"/>

  <!-- Snake Coils (Background layer) -->
  <path d="M140 370 C100 320 120 250 180 230 C240 210 320 240 350 300 C380 360 330 420 250 420 C180 420 130 380 150 340 C170 300 230 290 280 320 C320 344 320 380 270 390 C230 400 200 380 210 360"
        fill="none" stroke="url(#jadeBody)" stroke-width="48" stroke-linecap="round" stroke-linejoin="round"/>
  <path d="M140 370 C100 320 120 250 180 230 C240 210 320 240 350 300 C380 360 330 420 250 420 C180 420 130 380 150 340 C170 300 230 290 280 320 C320 344 320 380 270 390 C230 400 200 380 210 360"
        fill="none" stroke="url(#bellyGrad)" stroke-width="18" stroke-linecap="round" stroke-dasharray="14 10" opacity="0.85"/>

  <!-- Snake Upper Body & Neck Rising Up -->
  <path d="M220 320 C210 260 230 190 270 140 C285 120 310 100 310 75"
        fill="none" stroke="url(#jadeBody)" stroke-width="38" stroke-linecap="round"/>
  <path d="M226 315 C218 260 236 195 274 148 C287 130 310 105 310 80"
        fill="none" stroke="url(#bellyGrad)" stroke-width="14" stroke-linecap="round" stroke-dasharray="12 8" opacity="0.9"/>

  <!-- Snake Head (Majestic Viper Shape) -->
  <g transform="translate(305, 80) rotate(-22)">
    <!-- Horn/Crest Scales -->
    <path d="M-15 -35 Q-5 -45 5 -35 Q0 -25 -15 -35 Z" fill="#99f6e4" filter="url(#glow)"/>
    <!-- Head Base -->
    <path d="M-28 -15 Q-35 15 -18 35 Q0 55 18 35 Q35 15 28 -15 Q0 -32 -28 -15 Z" fill="url(#jadeBody)" stroke="#99f6e4" stroke-width="2"/>
    <path d="M-16 -10 Q0 -22 16 -10 Q0 35 -16 -10 Z" fill="#0f766e" opacity="0.6"/>

    <!-- Eyes -->
    <ellipse cx="-18" cy="2" rx="7" ry="5.5" fill="url(#eyeGlow)" filter="url(#glow)"/>
    <ellipse cx="18" cy="2" rx="7" ry="5.5" fill="url(#eyeGlow)" filter="url(#glow)"/>
    <!-- Vertical Slit Pupils -->
    <ellipse cx="-18" cy="2" rx="1.8" ry="4.8" fill="#18181b"/>
    <ellipse cx="18" cy="2" rx="1.8" ry="4.8" fill="#18181b"/>
    <!-- Eye Highlights -->
    <circle cx="-19" cy="0" r="1.5" fill="#ffffff"/>
    <circle cx="17" cy="0" r="1.5" fill="#ffffff"/>

    <!-- Snout & Nostrils -->
    <circle cx="-5" cy="28" r="1.5" fill="#042f2e"/>
    <circle cx="5" cy="28" r="1.5" fill="#042f2e"/>

    <!-- Forked Red Tongue -->
    <path d="M0 38 Q-2 52 0 62 Q-8 72 -14 78 M0 62 Q8 72 14 78" fill="none" stroke="#f43f5e" stroke-width="3" stroke-linecap="round"/>
  </g>

  <!-- Spirit Sparkles & Floating Jade Runes -->
  <circle cx="160" cy="180" r="3" fill="#5eead4" filter="url(#glow)"/>
  <circle cx="380" cy="220" r="4" fill="#a7f3d0" filter="url(#glow)"/>
  <circle cx="120" cy="290" r="2.5" fill="#5eead4"/>
  <circle cx="390" cy="350" r="3.5" fill="#99f6e4"/>

  <!-- Ornate Border Frame -->
  <rect x="12" y="12" width="488" height="488" rx="28" fill="none" stroke="#2dd4bf" stroke-width="3" opacity="0.65"/>
  <rect x="18" y="18" width="476" height="476" rx="22" fill="none" stroke="#fef08a" stroke-width="1.2" opacity="0.8"/>

  <!-- Seal Badge -->
  <g transform="translate(48, 52)">
    <rect x="-24" y="-16" width="60" height="32" rx="6" fill="#064e3b" stroke="#34d399" stroke-width="1.5"/>
    <text x="6" y="6" font-family="sans-serif" font-size="16" font-weight="bold" fill="#ecfdf5" text-anchor="middle">青 蛇</text>
  </g>
</svg>